<svg xmlns="http://www.w3.org/2000/svg" viewBox="0 0 64 64">
  <defs>
    <linearGradient id="g" x1="0" y1="0" x2="1" y2="1">
      <stop offset="0%" stop-color="#5DADE2"/>
      <stop offset="100%" stop-color="#76D7C4"/>
    </linearGradient>
  </defs>
  <circle cx="32" cy="32" r="30" fill="white" stroke="#5DADE2" stroke-width="2"/>
  <path d="M32 10a6 6 0 1 1 0 12a6 6 0 0 1 0-12z" fill="url(#g)"/>
  <path d="M26 21h12v6h-4v16.5c4.9-.7 8.7-3.5 11.4-8.5l4.4 2.2c-3.5 7.1-9.5 11-17.2 11.8V55h-4v-5.9c-7.7-.8-13.7-4.7-17.2-11.8l4.4-2.2c2.7 5 6.6 7.8 11.4 8.5V27h-4v-6z" fill="url(#g)"/>
</svg>