<svg xmlns="http://www.w3.org/2000/svg" viewBox="0 0 64 64">
  <defs>
    <linearGradient id="g" x1="0" y1="0" x2="1" y2="1">
      <stop offset="0" stop-color="#7fffd4"/>
      <stop offset="0.52" stop-color="#4682b4"/>
      <stop offset="1" stop-color="#9370db"/>
    </linearGradient>
  </defs>
  <rect x="4" y="4" width="56" height="56" rx="14" fill="url(#g)"/>
  <path d="M32 13c2 0 3.5 1.6 3.5 3.5V28c4.7 1.4 8.1 5.8 8.1 10.9 0 6.3-5.1 11.5-11.6 11.5S20.4 45.2 20.4 38.9c0-5.1 3.4-9.5 8.1-10.9V16.5C28.5 14.6 30 13 32 13zm0 18.4a7 7 0 1 0 0 14 7 7 0 0 0 0-14z" fill="#fff" opacity=".95"/>
  <path d="M18.2 39.6c1.9 7.2 7.9 12.4 13.8 12.4S44 46.8 45.8 39.6" fill="none" stroke="#fff" stroke-width="3.2" stroke-linecap="round"/>
</svg>
